<?xml version="1.0" encoding="UTF-8"?>
<svg version="1.1" xmlns="http://www.w3.org/2000/svg" width="242" height="306">
<path d="M0 0 C7.10516387 5.13220097 10.67268513 10.99451808 12.22265625 19.60546875 C12.41015625 23.23046875 12.41015625 23.23046875 12.22265625 25.60546875 C13.10953125 25.85296875 13.99640625 26.10046875 14.91015625 26.35546875 C19.53916858 28.10226585 22.2228321 30.15744756 25.03515625 34.23046875 C26.84588095 39.37673895 27.32829139 44.51536029 25.4609375 49.734375 C23.58055961 53.29445804 21.84402606 55.02302144 18.22265625 56.60546875 C18.71894531 57.2603125 19.21523437 57.91515625 19.7265625 58.58984375 C27.08139826 68.47072367 32.94655772 77.69305127 36.22265625 89.60546875 C36.2366748 88.66078735 36.2366748 88.66078735 36.25097656 87.69702148 C36.30504387 84.81157657 36.3886175 81.92769011 36.47265625 79.04296875 C36.48683594 78.05232422 36.50101563 77.06167969 36.515625 76.04101562 C36.7245246 69.75313767 37.21262776 65.5669212 41.22265625 60.60546875 C46.7884633 56.73086824 51.97859408 56.02841161 58.61328125 56.14453125 C59.91383453 56.14590591 59.91383453 56.14590591 61.24066162 56.14730835 C63.05926036 56.15331202 64.87785072 56.16895968 66.69628906 56.19384766 C69.47888551 56.23055092 72.26015446 56.2348651 75.04296875 56.234375 C76.81641775 56.24420059 78.58985776 56.25585515 80.36328125 56.26953125 C81.60709564 56.27286972 81.60709564 56.27286972 82.8760376 56.27627563 C90.20441644 56.39697678 90.20441644 56.39697678 93.22265625 58.60546875 C94.58504701 61.33025027 94.34235583 63.4738773 94.33618164 66.52392578 C94.33610611 67.76506134 94.33603058 69.0061969 94.33595276 70.28494263 C94.33084575 71.64438924 94.32562975 73.00383544 94.3203125 74.36328125 C94.31844767 75.75047759 94.31702407 77.13767459 94.31602478 78.52487183 C94.31220473 82.17781387 94.3023788 85.83071623 94.2913208 89.48364258 C94.28109569 93.21044376 94.2765248 96.93725134 94.27148438 100.6640625 C94.26075608 107.97788269 94.24368579 115.29167016 94.22265625 122.60546875 C87.05109457 122.68156554 79.87963711 122.73408837 72.70776367 122.77026367 C70.26827097 122.78534529 67.82880535 122.80581344 65.3894043 122.83178711 C61.88193066 122.86819687 58.37481571 122.88520164 54.8671875 122.8984375 C53.77743118 122.91392136 52.68767487 122.92940521 51.56489563 122.94535828 C42.21990747 122.94743288 42.21990747 122.94743288 38.22265625 119.60546875 C37.89265625 121.91546875 37.56265625 124.22546875 37.22265625 126.60546875 C38.61929733 126.48984269 40.01496824 126.36247675 41.41015625 126.23046875 C42.57611328 126.12605469 42.57611328 126.12605469 43.765625 126.01953125 C46.22460355 125.72764501 46.22460355 125.72764501 48.2578125 124.59179688 C52.55107486 123.16353766 56.62322782 123.35944469 61.1171875 123.41015625 C62.06454269 123.41298615 63.01189789 123.41581604 63.98796082 123.41873169 C67.00382291 123.42989688 70.01938441 123.45499486 73.03515625 123.48046875 C75.08398008 123.49050328 77.13280857 123.4996283 79.18164062 123.5078125 C84.19542773 123.52982426 89.20899108 123.56432904 94.22265625 123.60546875 C94.22265625 124.59546875 94.22265625 125.58546875 94.22265625 126.60546875 C80.36265625 126.93546875 66.50265625 127.26546875 52.22265625 127.60546875 C52.55265625 128.92546875 52.88265625 130.24546875 53.22265625 131.60546875 C51.78094391 135.71434891 50.40882146 138.6609509 47.22265625 141.60546875 C47.98449219 141.76402344 48.74632812 141.92257813 49.53125 142.0859375 C61.17289088 144.71657046 69.21285429 148.69160598 76.22265625 158.60546875 C81.76225687 167.97756857 87.73519537 179.43211583 87.22265625 190.60546875 C87.77953125 190.83234375 88.33640625 191.05921875 88.91015625 191.29296875 C94.00755733 194.18608828 97.91436434 198.85117 100.41015625 204.10546875 C102.24307272 212.00110895 102.31039493 220.42472627 98.22265625 227.60546875 C93.93666056 234.3668745 87.77437709 238.00280217 80.15234375 240.203125 C73.07206871 241.45005603 65.86638491 240.10832833 59.97265625 235.98046875 C56.06412073 232.75513253 52.81510577 228.96549748 50.22265625 224.60546875 C50.22265625 223.94546875 50.22265625 223.28546875 50.22265625 222.60546875 C49.38734375 222.74855469 49.38734375 222.74855469 48.53515625 222.89453125 C40.8926523 224.00475986 34.61721295 223.08233336 27.89453125 219.01171875 C23.7887488 215.55825688 20.90391338 210.64924014 19.22265625 205.60546875 C19.22265625 202.96546875 19.22265625 200.32546875 19.22265625 197.60546875 C-10.47734375 197.60546875 -40.17734375 197.60546875 -70.77734375 197.60546875 C-71.10734375 200.57546875 -71.43734375 203.54546875 -71.77734375 206.60546875 C-74.51900921 213.67052973 -78.11547793 218.49064883 -85.13671875 221.67578125 C-92.487329 224.20968727 -98.83231945 224.10686934 -105.96484375 220.98046875 C-112.48226519 217.38420234 -116.58613391 211.66603379 -118.77734375 204.60546875 C-119.60663153 198.23607792 -118.32034391 193.43317746 -115.77734375 187.60546875 C-117.75734375 187.27546875 -119.73734375 186.94546875 -121.77734375 186.60546875 C-118.4977954 176.54818714 -110.60103393 169.32724391 -101.6875 164.01171875 C-95.37817886 160.96291927 -88.78390918 159.38890218 -81.77734375 159.60546875 C-81.65528564 158.87529541 -81.53322754 158.14512207 -81.4074707 157.39282227 C-80.36159837 152.76642767 -78.09414931 148.7576842 -75.96484375 144.54296875 C-75.24300903 143.1041333 -75.24300903 143.1041333 -74.5065918 141.63623047 C-69.42475463 131.66213423 -63.69719538 122.10030584 -57.77734375 112.60546875 C-61.24234375 113.10046875 -61.24234375 113.10046875 -64.77734375 113.60546875 C-64.77734375 112.94546875 -64.77734375 112.28546875 -64.77734375 111.60546875 C-65.56109375 111.41984375 -66.34484375 111.23421875 -67.15234375 111.04296875 C-69.77734375 109.60546875 -69.77734375 109.60546875 -71.21484375 106.29296875 C-71.81882287 102.33355008 -71.81933564 100.97919448 -69.77734375 97.60546875 C-67.27734375 94.79296875 -67.27734375 94.79296875 -64.77734375 92.60546875 C-64.11734375 92.60546875 -63.45734375 92.60546875 -62.77734375 92.60546875 C-62.77734375 93.26546875 -62.77734375 93.92546875 -62.77734375 94.60546875 C-60.13734375 94.60546875 -57.49734375 94.60546875 -54.77734375 94.60546875 C-53.88130007 88.55717389 -53.66464932 82.71601115 -53.77734375 76.60546875 C-52.12734375 76.27546875 -50.47734375 75.94546875 -48.77734375 75.60546875 C-48.77734375 79.56546875 -48.77734375 83.52546875 -48.77734375 87.60546875 C-49.76734375 87.60546875 -50.75734375 87.60546875 -51.77734375 87.60546875 C-52.10734375 89.91546875 -52.43734375 92.22546875 -52.77734375 94.60546875 C-41.30164685 96.22556714 -32.7209595 91.60916179 -22.77734375 86.60546875 C-21.59398438 86.03183594 -20.410625 85.45820313 -19.19140625 84.8671875 C-10.95897806 80.69117368 -3.90667463 75.40461351 3.22265625 69.60546875 C2.23265625 65.64546875 2.23265625 65.64546875 1.22265625 61.60546875 C2.54265625 61.27546875 3.86265625 60.94546875 5.22265625 60.60546875 C5.22265625 59.94546875 5.22265625 59.28546875 5.22265625 58.60546875 C4.12953125 58.81171875 3.03640625 59.01796875 1.91015625 59.23046875 C-1.77734375 59.60546875 -1.77734375 59.60546875 -4.77734375 57.60546875 C-5.45796875 57.37859375 -6.13859375 57.15171875 -6.83984375 56.91796875 C-9.88093544 54.85787438 -10.0105514 52.05603432 -10.77734375 48.60546875 C-11.41671875 48.81171875 -12.05609375 49.01796875 -12.71484375 49.23046875 C-20.01197412 50.12399492 -25.90686404 47.51485734 -31.765625 43.3125 C-37.15158248 38.74227977 -40.30386047 33.20918315 -41.03125 26.13671875 C-41.407165 17.50279993 -39.50855025 10.1997526 -33.58984375 3.73046875 C-24.07569762 -4.77795368 -11.21048462 -6.50754961 0 0 Z M-31.15234375 9.04296875 C-35.12540224 14.16044083 -36.31816244 18.44147764 -36.14453125 24.9140625 C-35.35301256 30.7157261 -32.99772582 35.45064915 -28.79296875 39.53125 C-23.53003213 43.44112667 -18.33550427 44.90474988 -11.77734375 44.60546875 C-10.44086358 43.49445691 -10.44086358 43.49445691 -10.65234375 40.66796875 C-10.56408711 37.69001147 -10.56408711 37.69001147 -11.77734375 35.60546875 C-9.79734375 34.94546875 -7.81734375 34.28546875 -5.77734375 33.60546875 C-5.77734375 32.94546875 -5.77734375 32.28546875 -5.77734375 31.60546875 C-5.22046875 31.33734375 -4.66359375 31.06921875 -4.08984375 30.79296875 C-1.70765864 29.61064536 -1.70765864 29.61064536 0.72265625 28.04296875 C2.96481185 26.75372928 4.70344438 26.07198947 7.22265625 25.60546875 C7.94297755 18.9785128 5.98246424 14.07428037 2.22265625 8.60546875 C-3.68733134 2.90244571 -8.79226327 1.2247289 -16.92578125 1.33203125 C-23.0214426 1.91654672 -27.0950796 4.56531338 -31.15234375 9.04296875 Z M-2.08984375 91.23046875 C-8.32748625 93.77794678 -14.63801008 95.91670153 -21.08984375 97.85546875 C-22.30571167 98.22406006 -22.30571167 98.22406006 -23.54614258 98.60009766 C-28.50395337 100.05943095 -33.46054664 101.21286217 -38.53979492 102.16699219 C-39.27818604 102.31168945 -40.01657715 102.45638672 -40.77734375 102.60546875 C-41.85834351 102.79629028 -41.85834351 102.79629028 -42.96118164 102.9909668 C-45.11488568 103.50610299 -45.11488568 103.50610299 -46.48046875 106.328125 C-46.9909375 107.43027344 -47.50140625 108.53242188 -48.02734375 109.66796875 C-48.548125 110.77269531 -49.06890625 111.87742187 -49.60546875 113.015625 C-49.9921875 113.87027344 -50.37890625 114.72492188 -50.77734375 115.60546875 C-48.79734375 115.93546875 -46.81734375 116.26546875 -44.77734375 116.60546875 C-45.29774993 121.60589334 -46.86413526 124.89289937 -49.46484375 129.16796875 C-55.56547533 139.46997869 -60.43539346 150.08538049 -63.77734375 161.60546875 C-64.11765625 162.72888672 -64.11765625 162.72888672 -64.46484375 163.875 C-66.72783609 172.84839322 -65.93777652 182.42514925 -65.77734375 191.60546875 C-62.14734375 191.60546875 -58.51734375 191.60546875 -54.77734375 191.60546875 C-54.37515625 190.02765625 -54.37515625 190.02765625 -53.96484375 188.41796875 C-52.34732322 184.52335621 -50.14229557 183.54034819 -46.33984375 181.91796875 C-44.91865234 181.38623047 -44.91865234 181.38623047 -43.46875 180.84375 C-40.53315088 179.49311876 -38.83929679 178.07688765 -36.77734375 175.60546875 C-36.77734375 174.94546875 -36.77734375 174.28546875 -36.77734375 173.60546875 C-37.76734375 173.60546875 -38.75734375 173.60546875 -39.77734375 173.60546875 C-39.6850409 166.70011205 -39.57773058 159.79510574 -39.45996094 152.89013672 C-39.42166709 150.54090676 -39.38681496 148.19161809 -39.35546875 145.84228516 C-39.30982748 142.46625781 -39.25183076 139.09063484 -39.19140625 135.71484375 C-39.17407944 134.13808868 -39.17407944 134.13808868 -39.15640259 132.52947998 C-39.1365329 131.54876526 -39.11666321 130.56805054 -39.09619141 129.55761719 C-39.08286774 128.6960199 -39.06954407 127.83442261 -39.05581665 126.94671631 C-38.62025862 123.28478309 -37.53392001 121.23189858 -34.70239258 118.88745117 C-30.73709468 117.14955122 -27.26336816 117.12776099 -22.9765625 117.09375 C-22.14018753 117.0757988 -21.30381256 117.0578476 -20.4420929 117.03935242 C-17.78306041 116.98537366 -15.12420614 116.95139414 -12.46484375 116.91796875 C-10.65687631 116.88478464 -8.84893235 116.85029397 -7.04101562 116.81445312 C-2.61992051 116.72965451 1.80112289 116.66278434 6.22265625 116.60546875 C6.71765625 115.12046875 6.71765625 115.12046875 7.22265625 113.60546875 C6.89265625 113.27546875 6.56265625 112.94546875 6.22265625 112.60546875 C6.17476029 110.64772121 6.18580003 108.68845523 6.22265625 106.73046875 C6.27662093 100.62571391 5.90310057 94.6687137 5.22265625 88.60546875 C2.86491876 88.60546875 -0.00297004 90.35626816 -2.08984375 91.23046875 Z M-22.77734375 133.60546875 C-22.77734375 146.80546875 -22.77734375 160.00546875 -22.77734375 173.60546875 C-23.43734375 173.60546875 -24.09734375 173.60546875 -24.77734375 173.60546875 C-24.57818359 174.42337891 -24.57818359 174.42337891 -24.375 175.2578125 C-23.09945128 180.70449862 -22.30770532 186.03667227 -21.77734375 191.60546875 C-19.46734375 191.60546875 -17.15734375 191.60546875 -14.77734375 191.60546875 C-14.62700684 190.92669678 -14.47666992 190.2479248 -14.32177734 189.54858398 C-6.35223749 153.96275127 -6.35223749 153.96275127 3.22265625 144.60546875 C3.88265625 143.94546875 4.54265625 143.28546875 5.22265625 142.60546875 C4.56265625 142.27546875 3.90265625 141.94546875 3.22265625 141.60546875 C3.55265625 138.96546875 3.88265625 136.32546875 4.22265625 133.60546875 C-4.68734375 133.60546875 -13.59734375 133.60546875 -22.77734375 133.60546875 Z M66.22265625 197.60546875 C66.11236084 198.34079834 66.00206543 199.07612793 65.88842773 199.83374023 C64.3011751 209.56219245 64.3011751 209.56219245 61.28515625 213.66796875 C60.52912109 214.73724609 60.52912109 214.73724609 59.7578125 215.828125 C58.22265625 217.60546875 58.22265625 217.60546875 55.22265625 219.60546875 C55.49325288 224.07031314 57.36595366 226.75639217 60.296875 229.953125 C65.17212743 234.13615092 70.89283429 235.98894522 77.28515625 235.73046875 C83.43483403 234.77170009 88.55808724 231.6675149 92.63671875 226.98046875 C96.8149569 220.9686153 97.04743105 214.69673901 96.22265625 207.60546875 C94.55674063 203.6333789 92.25046443 200.63327693 89.22265625 197.60546875 C86.79667674 197.32759207 86.79667674 197.32759207 83.99609375 197.41015625 C82.96484375 197.41660156 81.93359375 197.42304688 80.87109375 197.4296875 C79.25074219 197.45482422 79.25074219 197.45482422 77.59765625 197.48046875 C76.5096875 197.48949219 75.42171875 197.49851563 74.30078125 197.5078125 C71.60785473 197.53143466 68.9153637 197.56437319 66.22265625 197.60546875 Z " fill="#3D384E" transform="translate(129.77734375,49.39453125)"/>
<path d="M0 0 C7.10516387 5.13220097 10.67268513 10.99451808 12.22265625 19.60546875 C12.41015625 23.23046875 12.41015625 23.23046875 12.22265625 25.60546875 C13.10953125 25.85296875 13.99640625 26.10046875 14.91015625 26.35546875 C19.53916858 28.10226585 22.2228321 30.15744756 25.03515625 34.23046875 C26.84588095 39.37673895 27.32829139 44.51536029 25.4609375 49.734375 C23.58055961 53.29445804 21.84402606 55.02302144 18.22265625 56.60546875 C18.96708984 57.58773437 18.96708984 57.58773437 19.7265625 58.58984375 C27.08139826 68.47072367 32.94655772 77.69305127 36.22265625 89.60546875 C36.23200195 88.97568115 36.24134766 88.34589355 36.25097656 87.69702148 C36.30504387 84.81157657 36.3886175 81.92769011 36.47265625 79.04296875 C36.48683594 78.05232422 36.50101562 77.06167969 36.515625 76.04101562 C36.7245246 69.75313767 37.21262776 65.5669212 41.22265625 60.60546875 C46.7884633 56.73086824 51.97859408 56.02841161 58.61328125 56.14453125 C59.91383453 56.14590591 59.91383453 56.14590591 61.24066162 56.14730835 C63.05926036 56.15331202 64.87785072 56.16895968 66.69628906 56.19384766 C69.47888551 56.23055092 72.26015446 56.2348651 75.04296875 56.234375 C76.81641775 56.24420059 78.58985776 56.25585515 80.36328125 56.26953125 C81.60709564 56.27286972 81.60709564 56.27286972 82.8760376 56.27627563 C90.20441644 56.39697678 90.20441644 56.39697678 93.22265625 58.60546875 C94.58504701 61.33025027 94.34235583 63.4738773 94.33618164 66.52392578 C94.33610611 67.76506134 94.33603058 69.0061969 94.33595276 70.28494263 C94.33084575 71.64438924 94.32562975 73.00383544 94.3203125 74.36328125 C94.31844767 75.75047759 94.31702407 77.13767459 94.31602478 78.52487183 C94.31220473 82.17781387 94.3023788 85.83071623 94.2913208 89.48364258 C94.28109569 93.21044376 94.2765248 96.93725134 94.27148438 100.6640625 C94.26075608 107.97788269 94.24368579 115.29167016 94.22265625 122.60546875 C87.05109457 122.68156554 79.87963711 122.73408837 72.70776367 122.77026367 C70.26827097 122.78534529 67.82880535 122.80581344 65.3894043 122.83178711 C61.88193066 122.86819687 58.37481571 122.88520164 54.8671875 122.8984375 C53.77743118 122.91392136 52.68767487 122.92940521 51.56489563 122.94535828 C42.21990747 122.94743288 42.21990747 122.94743288 38.22265625 119.60546875 C38.11953125 120.88421875 38.01640625 122.16296875 37.91015625 123.48046875 C37.734375 125.66015625 37.734375 125.66015625 37.22265625 127.60546875 C34.22265625 129.60546875 34.22265625 129.60546875 31.53515625 129.46875 C27.44484783 128.4027616 23.96339638 126.73013775 20.22265625 124.79296875 C19.536875 124.44943359 18.85109375 124.10589844 18.14453125 123.75195312 C6.88907918 118.02756767 6.88907918 118.02756767 5.34765625 114.73828125 C5.18570191 111.97493525 5.16929151 109.24876459 5.22265625 106.48046875 C5.27415269 100.78367506 4.93671801 95.25420728 4.22265625 89.60546875 C3.371875 89.96898437 2.52109375 90.3325 1.64453125 90.70703125 C-5.83339451 93.80957492 -13.33482904 96.52312252 -21.08984375 98.85546875 C-21.9003418 99.10119629 -22.71083984 99.34692383 -23.54589844 99.60009766 C-30.09524205 101.52770366 -36.70729542 102.94878118 -43.4465332 104.03613281 C-45.9525199 104.4345631 -45.9525199 104.4345631 -47.77734375 106.60546875 C-48.76734375 106.27546875 -49.75734375 105.94546875 -50.77734375 105.60546875 C-50.77734375 103.95546875 -50.77734375 102.30546875 -50.77734375 100.60546875 C-53.25234375 101.10046875 -53.25234375 101.10046875 -55.77734375 101.60546875 C-55.77734375 102.92546875 -55.77734375 104.24546875 -55.77734375 105.60546875 C-54.45734375 105.93546875 -53.13734375 106.26546875 -51.77734375 106.60546875 C-51.77734375 107.26546875 -51.77734375 107.92546875 -51.77734375 108.60546875 C-56.52734375 107.85546875 -56.52734375 107.85546875 -58.77734375 105.60546875 C-59.33271269 100.38500072 -59.33271269 100.38500072 -57.56640625 97.90576172 C-55.14410294 96.1452285 -53.79138226 96.4657732 -50.83984375 96.73828125 C-43.90706356 96.92300335 -38.89473354 94.51557474 -32.77734375 91.48046875 C-31.77445313 91.00609375 -30.7715625 90.53171875 -29.73828125 90.04296875 C-20.22124942 85.49348325 -10.82279716 80.88518811 -2.58984375 74.23046875 C-2.01943359 73.78058594 -1.44902344 73.33070312 -0.86132812 72.8671875 C0.50581026 71.78726306 1.86516963 70.69750091 3.22265625 69.60546875 C2.56265625 66.96546875 1.90265625 64.32546875 1.22265625 61.60546875 C3.20265625 61.11046875 3.20265625 61.11046875 5.22265625 60.60546875 C5.22265625 59.94546875 5.22265625 59.28546875 5.22265625 58.60546875 C4.12953125 58.81171875 3.03640625 59.01796875 1.91015625 59.23046875 C-1.77734375 59.60546875 -1.77734375 59.60546875 -4.77734375 57.60546875 C-5.45796875 57.37859375 -6.13859375 57.15171875 -6.83984375 56.91796875 C-9.88093544 54.85787438 -10.0105514 52.05603432 -10.77734375 48.60546875 C-11.41671875 48.81171875 -12.05609375 49.01796875 -12.71484375 49.23046875 C-20.01197412 50.12399492 -25.90686404 47.51485734 -31.765625 43.3125 C-37.15158248 38.74227977 -40.30386047 33.20918315 -41.03125 26.13671875 C-41.407165 17.50279993 -39.50855025 10.1997526 -33.58984375 3.73046875 C-24.07569762 -4.77795368 -11.21048462 -6.50754961 0 0 Z M-31.15234375 9.04296875 C-35.12540224 14.16044083 -36.31816244 18.44147764 -36.14453125 24.9140625 C-35.35301256 30.7157261 -32.99772582 35.45064915 -28.79296875 39.53125 C-23.53003213 43.44112667 -18.33550427 44.90474988 -11.77734375 44.60546875 C-10.44086358 43.49445691 -10.44086358 43.49445691 -10.65234375 40.66796875 C-10.56408711 37.69001147 -10.56408711 37.69001147 -11.77734375 35.60546875 C-9.79734375 34.94546875 -7.81734375 34.28546875 -5.77734375 33.60546875 C-5.77734375 32.94546875 -5.77734375 32.28546875 -5.77734375 31.60546875 C-5.22046875 31.33734375 -4.66359375 31.06921875 -4.08984375 30.79296875 C-1.70765864 29.61064536 -1.70765864 29.61064536 0.72265625 28.04296875 C2.96481185 26.75372928 4.70344438 26.07198947 7.22265625 25.60546875 C7.94297755 18.9785128 5.98246424 14.07428037 2.22265625 8.60546875 C-3.68733134 2.90244571 -8.79226327 1.2247289 -16.92578125 1.33203125 C-23.0214426 1.91654672 -27.0950796 4.56531338 -31.15234375 9.04296875 Z " fill="#FB6113" transform="translate(129.77734375,49.39453125)"/>
<path d="M0 0 C9.39179286 5.8049775 14.63581298 13.26759872 17.5546875 23.8359375 C18 26 18 26 18 29 C14.37 29 10.74 29 7 29 C7.103125 30.11375 7.20625 31.2275 7.3125 32.375 C7.30155266 38.53835087 4.57817929 44.10461017 0.5078125 48.67578125 C-4.95203252 53.47082648 -10.89587799 54.89290268 -18 55 C-24.41703432 54.25272983 -30.61783607 51.96160921 -34.734375 46.84375 C-38.99649981 40.59263362 -40.1227481 36.48763424 -40 29 C-43.63 29 -47.26 29 -51 29 C-49.9552932 21.40213234 -48.6316584 16.11271196 -44 10 C-43.236875 8.948125 -42.47375 7.89625 -41.6875 6.8125 C-31.41185671 -3.94108019 -13.3229297 -7.13093951 0 0 Z " fill="#29293D" transform="translate(189,218)"/>
<path d="M0 0 C7.10516387 5.13220097 10.67268513 10.99451808 12.22265625 19.60546875 C12.41015625 23.23046875 12.41015625 23.23046875 12.22265625 25.60546875 C13.10953125 25.85296875 13.99640625 26.10046875 14.91015625 26.35546875 C19.53916858 28.10226585 22.2228321 30.15744756 25.03515625 34.23046875 C26.84588095 39.37673895 27.32829139 44.51536029 25.4609375 49.734375 C23.66377961 53.13689922 21.94070156 55.41038276 18.22265625 56.60546875 C19.54265625 58.58546875 20.86265625 60.56546875 22.22265625 62.60546875 C18.26265625 63.59546875 14.30265625 64.58546875 10.22265625 65.60546875 C10.0440481 67.96556036 10.0440481 67.96556036 12.28515625 70.85546875 C13.81359415 73.49202412 14.22088615 74.51873372 14.28515625 77.66796875 C11.74588546 84.68830565 6.57984509 88.24005109 0.22265625 91.60546875 C-3.52932571 93.1588193 -7.34886108 94.42965822 -11.21484375 95.66796875 C-12.26583252 96.01158447 -13.31682129 96.3552002 -14.3996582 96.70922852 C-23.97979757 99.78441604 -33.67589029 102.42026066 -43.609375 104.078125 C-45.97244475 104.45393845 -45.97244475 104.45393845 -47.77734375 106.60546875 C-48.76734375 106.27546875 -49.75734375 105.94546875 -50.77734375 105.60546875 C-50.77734375 103.95546875 -50.77734375 102.30546875 -50.77734375 100.60546875 C-53.25234375 101.10046875 -53.25234375 101.10046875 -55.77734375 101.60546875 C-55.77734375 102.92546875 -55.77734375 104.24546875 -55.77734375 105.60546875 C-54.45734375 105.93546875 -53.13734375 106.26546875 -51.77734375 106.60546875 C-51.77734375 107.26546875 -51.77734375 107.92546875 -51.77734375 108.60546875 C-56.52734375 107.85546875 -56.52734375 107.85546875 -58.77734375 105.60546875 C-59.33271269 100.38500072 -59.33271269 100.38500072 -57.56640625 97.90576172 C-55.14410294 96.1452285 -53.79138226 96.4657732 -50.83984375 96.73828125 C-43.90706356 96.92300335 -38.89473354 94.51557474 -32.77734375 91.48046875 C-31.77445313 91.00609375 -30.7715625 90.53171875 -29.73828125 90.04296875 C-20.22124942 85.49348325 -10.82279716 80.88518811 -2.58984375 74.23046875 C-2.01943359 73.78058594 -1.44902344 73.33070312 -0.86132812 72.8671875 C0.50581026 71.78726306 1.86516963 70.69750091 3.22265625 69.60546875 C2.56265625 66.96546875 1.90265625 64.32546875 1.22265625 61.60546875 C3.20265625 61.11046875 3.20265625 61.11046875 5.22265625 60.60546875 C5.22265625 59.94546875 5.22265625 59.28546875 5.22265625 58.60546875 C4.12953125 58.81171875 3.03640625 59.01796875 1.91015625 59.23046875 C-1.77734375 59.60546875 -1.77734375 59.60546875 -4.77734375 57.60546875 C-5.45796875 57.37859375 -6.13859375 57.15171875 -6.83984375 56.91796875 C-9.88093544 54.85787438 -10.0105514 52.05603432 -10.77734375 48.60546875 C-11.41671875 48.81171875 -12.05609375 49.01796875 -12.71484375 49.23046875 C-20.01197412 50.12399492 -25.90686404 47.51485734 -31.765625 43.3125 C-37.15158248 38.74227977 -40.30386047 33.20918315 -41.03125 26.13671875 C-41.407165 17.50279993 -39.50855025 10.1997526 -33.58984375 3.73046875 C-24.07569762 -4.77795368 -11.21048462 -6.50754961 0 0 Z M-31.15234375 9.04296875 C-35.12540224 14.16044083 -36.31816244 18.44147764 -36.14453125 24.9140625 C-35.35301256 30.7157261 -32.99772582 35.45064915 -28.79296875 39.53125 C-23.53003213 43.44112667 -18.33550427 44.90474988 -11.77734375 44.60546875 C-10.44086358 43.49445691 -10.44086358 43.49445691 -10.65234375 40.66796875 C-10.56408711 37.69001147 -10.56408711 37.69001147 -11.77734375 35.60546875 C-9.79734375 34.94546875 -7.81734375 34.28546875 -5.77734375 33.60546875 C-5.77734375 32.94546875 -5.77734375 32.28546875 -5.77734375 31.60546875 C-5.22046875 31.33734375 -4.66359375 31.06921875 -4.08984375 30.79296875 C-1.70765864 29.61064536 -1.70765864 29.61064536 0.72265625 28.04296875 C2.96481185 26.75372928 4.70344438 26.07198947 7.22265625 25.60546875 C7.94297755 18.9785128 5.98246424 14.07428037 2.22265625 8.60546875 C-3.68733134 2.90244571 -8.79226327 1.2247289 -16.92578125 1.33203125 C-23.0214426 1.91654672 -27.0950796 4.56531338 -31.15234375 9.04296875 Z " fill="#E77657" transform="translate(129.77734375,49.39453125)"/>
<path d="M0 0 C1.24872391 -0.0149778 1.24872391 -0.0149778 2.52267456 -0.03025818 C4.28264417 -0.04541348 6.04269958 -0.05248477 7.80273438 -0.05200195 C10.46373337 -0.05852401 13.12091724 -0.11291474 15.78125 -0.16992188 C25.88639208 -0.26979887 32.87637803 0.52616782 41.3671875 6.50390625 C48.94610553 10.82241973 48.94610553 10.82241973 57.3671875 12.50390625 C58.3571875 11.84390625 59.3471875 11.18390625 60.3671875 10.50390625 C62.453125 10.16015625 62.453125 10.16015625 64.7421875 10.00390625 C67.29425785 9.82850623 69.09219468 9.6407242 71.39575195 8.49462891 C75.69220587 7.06212459 79.76353363 7.25783451 84.26171875 7.30859375 C85.20907394 7.31142365 86.15642914 7.31425354 87.13249207 7.31716919 C90.14835416 7.32833438 93.16391566 7.35343236 96.1796875 7.37890625 C98.22851133 7.38894078 100.27733982 7.3980658 102.32617188 7.40625 C107.33995898 7.42826176 112.35352233 7.46276654 117.3671875 7.50390625 C117.3671875 8.49390625 117.3671875 9.48390625 117.3671875 10.50390625 C103.5071875 10.83390625 89.6471875 11.16390625 75.3671875 11.50390625 C75.8621875 13.48390625 75.8621875 13.48390625 76.3671875 15.50390625 C74.67598646 20.76542061 72.76190938 23.26569013 68.3671875 26.50390625 C67.8721875 27.98890625 67.8721875 27.98890625 67.3671875 29.50390625 C59.4471875 29.50390625 51.5271875 29.50390625 43.3671875 29.50390625 C43.6971875 28.84390625 44.0271875 28.18390625 44.3671875 27.50390625 C43.07941406 27.44332031 41.79164063 27.38273437 40.46484375 27.3203125 C38.78644591 27.23592378 37.10806114 27.15127495 35.4296875 27.06640625 C34.57955078 27.02708984 33.72941406 26.98777344 32.85351562 26.94726562 C32.04462891 26.90537109 31.23574219 26.86347656 30.40234375 26.8203125 C29.27904663 26.76532593 29.27904663 26.76532593 28.13305664 26.70922852 C26.3671875 26.50390625 26.3671875 26.50390625 25.3671875 25.50390625 C25.6971875 23.19390625 26.0271875 20.88390625 26.3671875 18.50390625 C13.4971875 18.00890625 13.4971875 18.00890625 0.3671875 17.50390625 C0.3671875 30.70390625 0.3671875 43.90390625 0.3671875 57.50390625 C-5.2428125 57.50390625 -10.8528125 57.50390625 -16.6328125 57.50390625 C-16.70701115 50.61713007 -16.76143831 43.73058698 -16.79760742 36.84350586 C-16.81268678 34.50101671 -16.83315328 32.15855575 -16.85913086 29.81616211 C-16.89555071 26.44768308 -16.91254763 23.07957761 -16.92578125 19.7109375 C-16.94126511 18.66492874 -16.95674896 17.61891998 -16.97270203 16.54121399 C-16.97485926 7.20521508 -16.97485926 7.20521508 -13.6328125 3.50390625 C-9.45447079 0.03936854 -5.21464796 0.02195983 0 0 Z " fill="#29293D" transform="translate(106.6328125,165.49609375)"/>
<path d="M0 0 C4.59061935 3.32819903 8.05154456 7.34227998 11.5 11.8125 C12.06976563 11.49023438 12.63953125 11.16796875 13.2265625 10.8359375 C16.94631618 9.16140921 20.50010605 9.24307065 24.5 9.8125 C28.42216475 11.84621506 31.2151836 14.00447266 33.5 17.8125 C33.5 18.4725 33.5 19.1325 33.5 19.8125 C34.23863281 19.64492188 34.97726563 19.47734375 35.73828125 19.3046875 C43.52123825 17.74216246 51.37172255 16.80695248 58.51953125 20.99609375 C60.1875 22.3125 60.1875 22.3125 62.5 24.8125 C62.5 25.4725 62.5 26.1325 62.5 26.8125 C26.53 26.8125 -9.44 26.8125 -46.5 26.8125 C-45.41724442 21.3987221 -44.82062795 20.0299889 -40.5 16.8125 C-37.01392867 16.21813152 -33.72402446 16.20048777 -30.5 17.8125 C-30.479375 16.6575 -30.45875 15.5025 -30.4375 14.3125 C-29.74278199 8.72498226 -26.54995048 5.49042998 -22.5 1.8125 C-16.33829761 -2.88213039 -7.08229339 -2.40292097 0 0 Z " fill="#F95C0A" transform="translate(98.5,1.1875)"/>
<path d="M0 0 C1.640625 1.3984375 1.640625 1.3984375 3.640625 5.3984375 C-0.319375 6.3884375 -4.279375 7.3784375 -8.359375 8.3984375 C-8.53798315 10.75852911 -8.53798315 10.75852911 -6.296875 13.6484375 C-4.7684371 16.28499287 -4.3611451 17.31170247 -4.296875 20.4609375 C-6.83614579 27.4812744 -12.00218616 31.03301984 -18.359375 34.3984375 C-22.11135696 35.95178805 -25.93089233 37.22262697 -29.796875 38.4609375 C-30.84786377 38.80455322 -31.89885254 39.14816895 -32.98168945 39.50219727 C-42.56182882 42.57738479 -52.25792154 45.21322941 -62.19140625 46.87109375 C-64.554476 47.2469072 -64.554476 47.2469072 -66.359375 49.3984375 C-67.349375 49.0684375 -68.339375 48.7384375 -69.359375 48.3984375 C-69.359375 46.7484375 -69.359375 45.0984375 -69.359375 43.3984375 C-71.834375 43.8934375 -71.834375 43.8934375 -74.359375 44.3984375 C-74.359375 45.7184375 -74.359375 47.0384375 -74.359375 48.3984375 C-73.039375 48.7284375 -71.719375 49.0584375 -70.359375 49.3984375 C-70.359375 50.0584375 -70.359375 50.7184375 -70.359375 51.3984375 C-75.109375 50.6484375 -75.109375 50.6484375 -77.359375 48.3984375 C-77.91474394 43.17796947 -77.91474394 43.17796947 -76.1484375 40.69873047 C-73.72613419 38.93819725 -72.37341351 39.25874195 -69.421875 39.53125 C-62.48909481 39.7159721 -57.47676479 37.30854349 -51.359375 34.2734375 C-50.35648438 33.7990625 -49.35359375 33.3246875 -48.3203125 32.8359375 C-38.80328067 28.286452 -29.40482841 23.67815686 -21.171875 17.0234375 C-20.60146484 16.57355469 -20.03105469 16.12367187 -19.44335938 15.66015625 C-18.07622099 14.58023181 -16.71686162 13.49046966 -15.359375 12.3984375 C-16.019375 9.7584375 -16.679375 7.1184375 -17.359375 4.3984375 C-14.94819992 3.50474325 -12.5325544 2.63341984 -10.109375 1.7734375 C-9.42746094 1.51820312 -8.74554688 1.26296875 -8.04296875 1 C-2.99617913 -0.76392647 -2.99617913 -0.76392647 0 0 Z " fill="#CE4F0E" transform="translate(148.359375,106.6015625)"/>
<path d="M0 0 C1.93166016 0.01740234 1.93166016 0.01740234 3.90234375 0.03515625 C5.19269531 0.04417969 6.48304687 0.05320313 7.8125 0.0625 C8.81152344 0.07410156 9.81054688 0.08570313 10.83984375 0.09765625 C10.19015625 0.78988281 10.19015625 0.78988281 9.52734375 1.49609375 C5.50897799 6.20279068 3.98261931 9.59788527 4.375 15.828125 C5.33246688 20.50281622 8.03226617 22.5592712 11.83984375 25.09765625 C16.32676975 25.83265746 20.01209376 25.43488773 24.21484375 23.72265625 C28.02525429 19.91224571 28.60535987 16.30992154 29.83984375 11.09765625 C33.46984375 11.09765625 37.09984375 11.09765625 40.83984375 11.09765625 C40.32819413 19.28405021 38.7913065 25.59165654 32.71484375 31.41015625 C27.33216491 35.61968714 21.02722154 37.50497541 14.21484375 37.03515625 C6.9528594 35.81842166 1.62240066 32.75728651 -2.90625 26.9453125 C-6.80989642 21.19321045 -8.05584707 15.90258002 -7.16015625 9.09765625 C-4.66891339 0.14428039 -4.66891339 0.14428039 0 0 Z " fill="#000000" transform="translate(18.16015625,235.90234375)"/>
<path d="M0 0 C1.2375 1.5159375 1.2375 1.5159375 2.5 3.0625 C3.7375 4.5165625 3.7375 4.5165625 5 6 C8.64181182 5.66564484 8.64181182 5.66564484 10.99609375 5.109375 C13.60422062 4.9670211 14.50816714 5.67382899 16.5 7.3125 C19 10 19 10 19 12 C19.680625 11.649375 20.36125 11.29875 21.0625 10.9375 C24.8070481 9.74243146 27.21805972 10.00099691 31 11 C31.69937532 12.31647119 32.36729133 13.65022151 33 15 C34.99883869 15.34022786 36.99890722 15.67329097 39 16 C39.99 17.32 40.98 18.64 42 20 C19.56 20 -2.88 20 -26 20 C-24 15 -24 15 -22.25 13.6875 C-19.42890579 12.82549899 -16.93240449 12.86670889 -14 13 C-14.061875 11.39125 -14.061875 11.39125 -14.125 9.75 C-13.95462478 4.63874346 -13.95462478 4.63874346 -12 2 C-8.58906187 -0.62379856 -4.11377567 -1.00154297 0 0 Z " fill="#F95C0A" transform="translate(200,62)"/>
<path d="M0 0 C3.87850945 2.67801843 6.13291589 5.33624767 7.625 9.8125 C8.45310879 15.1270716 8.07537205 18.83235798 4.875 23.25 C1.9500965 26.90612938 -0.50033824 28.56445979 -5.1796875 29.18359375 C-14.49400565 29.38504847 -14.49400565 29.38504847 -17.9375 26.6875 C-21.93532044 21.97212205 -24.00208219 18.1859342 -23.72265625 11.83203125 C-22.87145693 6.88742394 -20.35922832 3.7264263 -16.75 0.375 C-11.08257483 -2.24880795 -5.84836376 -2.05775762 0 0 Z " fill="#FEFCFA" transform="translate(203.375,125.1875)"/>
<path d="M0 0 C1.875 1.375 1.875 1.375 3 3 C3 3.99 3 4.98 3 6 C3.66 5.67 4.32 5.34 5 5 C10.29577465 4.48750568 10.29577465 4.48750568 13 5 C13.928125 6.2375 13.928125 6.2375 14.875 7.5 C16.72610409 10.24222692 16.72610409 10.24222692 19.4609375 10.33203125 C21.99023785 10.31431906 24.48033255 10.21638366 27 10 C27.25523438 10.63421875 27.51046875 11.2684375 27.7734375 11.921875 C28.94462512 14.41925542 28.94462512 14.41925542 32.625 15.25 C33.73875 15.4975 34.8525 15.745 36 16 C36.495 17.98 36.495 17.98 37 20 C17.2 20 -2.6 20 -23 20 C-22.67 18.35 -22.34 16.7 -22 15 C-18.79266696 12.97798569 -16.80845564 12 -13 12 C-12.96261719 11.38511719 -12.92523438 10.77023438 -12.88671875 10.13671875 C-12.82097656 9.32847656 -12.75523438 8.52023438 -12.6875 7.6875 C-12.62949219 6.88699219 -12.57148438 6.08648437 -12.51171875 5.26171875 C-11.90500435 2.58013375 -11.15637846 1.6646627 -9 0 C-5.45026831 -1.1832439 -3.60040463 -0.90010116 0 0 Z " fill="#F85B0A" transform="translate(23,104)"/>
<path d="M0 0 C7.10516387 5.13220097 10.67268513 10.99451808 12.22265625 19.60546875 C12.41015625 23.23046875 12.41015625 23.23046875 12.22265625 25.60546875 C10.57265625 25.60546875 8.92265625 25.60546875 7.22265625 25.60546875 C7.13628906 24.97640625 7.04992187 24.34734375 6.9609375 23.69921875 C5.67508922 15.86616132 3.46595221 10.1352396 -2.90234375 5.16796875 C-8.86068815 1.9297381 -15.55568585 1.36380466 -22.1015625 3.2890625 C-27.74914478 5.8815717 -30.96613711 9.50054309 -34.08984375 14.85546875 C-35.96940095 22.37369754 -35.18444751 28.62968305 -31.3828125 35.40234375 C-28.19538188 39.77633614 -24.54997986 41.99270748 -19.28515625 43.15625 C-14.27560469 43.78815392 -9.71954162 43.57242051 -4.77734375 42.60546875 C-4.92042969 43.61867188 -4.92042969 43.61867188 -5.06640625 44.65234375 C-5.17726562 45.544375 -5.288125 46.43640625 -5.40234375 47.35546875 C-5.51835938 48.2371875 -5.634375 49.11890625 -5.75390625 50.02734375 C-5.77942192 52.83406753 -5.22578219 54.23931741 -3.77734375 56.60546875 C-5.09734375 56.60546875 -6.41734375 56.60546875 -7.77734375 56.60546875 C-10.77734375 50.85546875 -10.77734375 50.85546875 -10.77734375 48.60546875 C-11.41671875 48.81171875 -12.05609375 49.01796875 -12.71484375 49.23046875 C-20.01197412 50.12399492 -25.90686404 47.51485734 -31.765625 43.3125 C-37.15158248 38.74227977 -40.30386047 33.20918315 -41.03125 26.13671875 C-41.407165 17.50279993 -39.50855025 10.1997526 -33.58984375 3.73046875 C-24.07569762 -4.77795368 -11.21048462 -6.50754961 0 0 Z " fill="#FC6010" transform="translate(129.77734375,49.39453125)"/>
<path d="M0 0 C3.3 0 6.6 0 10 0 C10.3403125 1.8253125 10.3403125 1.8253125 10.6875 3.6875 C11.74237248 7.967702 13.56759815 10.16826848 17 13 C20.20211208 14.60105604 23.51746635 14.35668408 27 14 C30.59469929 12.71133422 32.45755144 11.69208954 34.8125 8.6875 C36.099925 5.77385396 36.63310778 3.1552731 37 0 C40.3 0 43.6 0 47 0 C47.66065525 7.13507668 45.93335398 12.01759512 42 18 C37.13565433 23.46283846 31.41020586 25.3192391 24.33203125 25.96484375 C18.14886395 26.05805733 11.75946252 24.00328623 7 20 C1.63822979 13.33401542 -0.13841138 8.44309408 0 0 Z " fill="#000000" transform="translate(149,247)"/>
<path d="M0 0 C-0.2673999 0.67579102 -0.5347998 1.35158203 -0.81030273 2.04785156 C-2.02194611 5.11422312 -3.22976178 8.18208836 -4.4375 11.25 C-4.85837891 12.31347656 -5.27925781 13.37695312 -5.71289062 14.47265625 C-6.11572266 15.49746094 -6.51855469 16.52226562 -6.93359375 17.578125 C-7.30540771 18.52075195 -7.67722168 19.46337891 -8.06030273 20.43457031 C-8.85982824 22.61732272 -9.4941992 24.73438536 -10 27 C-16.80824106 27.94267953 -23.21098511 27.97730988 -30.0625 27.5625 C-31.02349609 27.51029297 -31.98449219 27.45808594 -32.97460938 27.40429688 C-35.31685793 27.27611412 -37.65850875 27.14123891 -40 27 C-35.68961137 16.008509 -27.63842728 8.14071654 -17 3 C-11.29960131 1.04637499 -6.01980164 -0.06624179 0 0 Z " fill="#28283B" transform="translate(48,209)"/>
<path d="M0 0 C5.99843048 2.44380501 10.45495534 7.7472744 13.1875 13.5 C15.02041647 21.3956402 15.08773868 29.81925752 11 37 C6.71400431 43.76140575 0.55172084 47.39733342 -7.0703125 49.59765625 C-14.15058754 50.84458728 -21.35627134 49.50285958 -27.25 45.375 C-31.06574557 42.20427863 -34.82056913 38.50476506 -37 34 C-36.83984375 31.8203125 -36.83984375 31.8203125 -36 30 C-35.01 29.67 -34.02 29.34 -33 29 C-32.6596875 29.59167969 -32.319375 30.18335938 -31.96875 30.79296875 C-28.04283587 37.19346173 -24.1828245 41.52446278 -16.8046875 43.625 C-9.85709636 44.78696646 -4.13143368 42.87886021 1.8125 39.3125 C6.46379734 34.39541424 8.25417228 29.78320979 8.5625 23 C8.34469553 16.11737862 5.77870577 11.77870577 1 7 C0.59952556 4.67724823 0.2602896 2.34260643 0 0 Z " fill="#FB5F10" transform="translate(217,240)"/>
<path d="M0 0 C3.96 0 7.92 0 12 0 C14.64053031 6.93139205 15 9.96502083 15 18 C4.11 18 -6.78 18 -18 18 C-17 12 -17 12 -15.5 10.375 C-12.46164232 8.70390328 -9.3341947 7.36291185 -6.12109375 6.0625 C-3.15686531 4.57765629 -1.47878462 2.95756924 0 0 Z " fill="#FDC249" transform="translate(93,223)"/>
<path d="M0 0 C1.32 0 2.64 0 4 0 C4 3.96 4 7.92 4 12 C3.01 12 2.02 12 1 12 C0.67 14.31 0.34 16.62 0 19 C2.97 19 5.94 19 9 19 C9.33 19.66 9.66 20.32 10 21 C6.85669501 21.78582625 4.03068047 22.02542843 0.8125 21.9375 C-3.02197339 21.5583591 -3.02197339 21.5583591 -5 24 C-5.33333333 27 -5.33333333 27 -5 30 C-2.8614515 32.1385485 -1.86724686 32.42655063 1 33 C1 32.34 1 31.68 1 31 C-0.65 30.67 -2.3 30.34 -4 30 C-3.67 28.35 -3.34 26.7 -3 25 C-1.34385343 24.61781233 0.32457024 24.28604898 2 24 C3 25 3 25 3.0625 27.5625 C3.041875 28.366875 3.02125 29.17125 3 30 C4.65 29.34 6.3 28.68 8 28 C6.87548273 30.9719385 5.77706209 33.33440687 4 36 C1.24288731 36.54501065 -1.34152546 36.92549765 -4.125 37.1875 C-4.87910156 37.26935547 -5.63320312 37.35121094 -6.41015625 37.43554688 C-8.27216607 37.6358897 -10.13595811 37.81954036 -12 38 C-12 37.34 -12 36.68 -12 36 C-13.175625 35.7215625 -13.175625 35.7215625 -14.375 35.4375 C-17 34 -17 34 -18.4375 30.6875 C-19.04147912 26.72808133 -19.04199189 25.37372573 -17 22 C-14.5 19.1875 -14.5 19.1875 -12 17 C-11.34 17 -10.68 17 -10 17 C-10 17.66 -10 18.32 -10 19 C-7.36 19 -4.72 19 -2 19 C-1.20009182 13.60061976 -0.92917589 8.46186219 -1.0625 3.00390625 C-1 1 -1 1 0 0 Z " fill="#3F394F" transform="translate(77,125)"/>
<path d="M0 0 C0 2.64 0 5.28 0 8 C-1.65 8.66 -3.3 9.32 -5 10 C-5 11.98 -5 13.96 -5 16 C-3.35 16 -1.7 16 0 16 C0.66 14.02 1.32 12.04 2 10 C4.97 10.33 7.94 10.66 11 11 C10.6173991 16.64336328 10.22146091 19.89915226 6 24 C1.76656329 26.49755053 -2.19048101 26.95382057 -7 26 C-10.37604652 23.95808689 -13.22195185 21.55609629 -15 18 C-15.6198407 13.7081916 -15.95106138 9.67940586 -13.765625 5.8203125 C-9.568292 0.81260332 -6.58175251 -0.14626117 0 0 Z " fill="#3E3D3E" transform="translate(37,236)"/>
<path d="M0 0 C3.36539571 2.8846249 5.77797431 5.5667643 6.57421875 10.0546875 C6.83759994 15.44946077 5.84887756 18.71884169 2.1875 22.875 C-1.50156706 26.03705748 -4.89140732 26.39883784 -9.59765625 26.2265625 C-14.11553401 25.50943905 -16.79876724 23.05768822 -19.6875 19.6875 C-21.28388096 15.69654759 -21.391056 12.11774402 -20.8125 7.875 C-19.33656483 4.64199914 -17.54657055 2.15339213 -14.8125 -0.125 C-9.86507186 -1.77414271 -4.87451525 -1.9498061 0 0 Z M-15.8125 8.875 C-16.64583333 12.375 -16.64583333 12.375 -15.8125 15.875 C-13.22033917 19.56686542 -11.77100936 20.70383761 -7.3125 21.5 C-2.85399064 20.70383761 -1.40466083 19.56686542 1.1875 15.875 C2.02083333 12.375 2.02083333 12.375 1.1875 8.875 C-1.40466083 5.18313458 -2.85399064 4.04616239 -7.3125 3.25 C-11.77100936 4.04616239 -13.22033917 5.18313458 -15.8125 8.875 Z " fill="#FC6010" transform="translate(30.8125,153.125)"/>
<path d="M0 0 C8.25 0 16.5 0 25 0 C25 8 25 8 22.75 10.875 C18.37079224 14.25893327 15.76073526 15.46318015 10.03125 15.32421875 C6.68448796 14.79002404 4.55748529 13.13123774 2 11 C0 8 0 8 0 0 Z " fill="#3C3C3C" transform="translate(160,247)"/>
<path d="M0 0 C2 2 2 2 3.1875 4.4375 C5.67649017 7.95641714 7.98511688 8.56070228 12 10 C11 12 11 12 8.625 12.875 C4.38514876 14.6920791 2.88163524 17.94724717 1 22 C0.773125 21.443125 0.54625 20.88625 0.3125 20.3125 C-1.76246643 16.65660676 -4.27863135 13.6048052 -8.3125 12.1875 C-8.869375 12.125625 -9.42625 12.06375 -10 12 C-10 11.34 -10 10.68 -10 10 C-8.906875 9.649375 -7.81375 9.29875 -6.6875 8.9375 C-3.53564713 7.62316459 -2.37683541 6.46435287 -1.0625 3.3125 C-0.711875 2.219375 -0.36125 1.12625 0 0 Z " fill="#F9CA23" transform="translate(32,50)"/>
<path d="M0 0 C2 2 2 2 2.5625 4.375 C4.81939164 8.49628038 8.7304522 9.42747108 13 11 C10.82463499 12.09461042 8.6473597 13.16341868 6.4375 14.1875 C3.06420562 16.6958471 2.40628536 19.07720401 1 23 C0.67 23 0.34 23 0 23 C-0.268125 22.071875 -0.53625 21.14375 -0.8125 20.1875 C-2.18073186 16.49109198 -2.18073186 16.49109198 -5 14 C-8.10007201 12.79950593 -8.10007201 12.79950593 -11 12 C-10.443125 11.7525 -9.88625 11.505 -9.3125 11.25 C-5.14122857 8.99525869 -2.49962499 7.23716665 -0.6875 2.75 C-0.460625 1.8425 -0.23375 0.935 0 0 Z " fill="#F9CA23" transform="translate(77,269)"/>
<path d="M0 0 C3.63 0 7.26 0 11 0 C11 1.98 11 3.96 11 6 C6.545 6.495 6.545 6.495 2 7 C1.67 8.32 1.34 9.64 1 11 C-0.98 11.33 -2.96 11.66 -5 12 C-5.33 9.36 -5.66 6.72 -6 4 C-4.02 3.34 -2.04 2.68 0 2 C0 1.34 0 0.68 0 0 Z " fill="#3F4078" transform="translate(124,81)"/>
<path d="M0 0 C1.75183594 0.02320313 1.75183594 0.02320313 3.5390625 0.046875 C6.375 0.25 6.375 0.25 7.375 1.25 C7.8125 3.5625 7.8125 3.5625 7.375 6.25 C4.5625 8.625 4.5625 8.625 1.375 10.25 C0.385 9.92 -0.605 9.59 -1.625 9.25 C-1.625 7.6 -1.625 5.95 -1.625 4.25 C-3.275 4.58 -4.925 4.91 -6.625 5.25 C-6.625 6.57 -6.625 7.89 -6.625 9.25 C-5.305 9.58 -3.985 9.91 -2.625 10.25 C-2.625 10.91 -2.625 11.57 -2.625 12.25 C-7.375 11.5 -7.375 11.5 -9.625 9.25 C-10.17465687 4.08322543 -10.17465687 4.08322543 -8.51953125 1.57421875 C-5.70341931 -0.3941564 -3.38960258 -0.07515749 0 0 Z " fill="#F2A1A2" transform="translate(80.625,145.75)"/>
<path d="M0 0 C1.64574566 -0.02688151 3.29161413 -0.04634123 4.9375 -0.0625 C5.85402344 -0.07410156 6.77054688 -0.08570312 7.71484375 -0.09765625 C10 0 10 0 11 1 C11.36090226 8.45864662 11.36090226 8.45864662 9 12 C6.75 11.875 6.75 11.875 4 11 C0.80463295 7.20010404 -0.22450058 4.8891237 0 0 Z " fill="#CAA221" transform="translate(123,97)"/>
<path d="M0 0 C10.89 0 21.78 0 33 0 C33 0.99 33 1.98 33 3 C22.11 3 11.22 3 0 3 C0 2.01 0 1.02 0 0 Z " fill="#E1AD42" transform="translate(75,238)"/>
<path d="M0 0 C0 5.61 0 11.22 0 17 C-5 15 -5 15 -6.4375 11.6875 C-7.03079596 7.79811536 -7.02454794 6.31289663 -5 3 C-1.5862069 0 -1.5862069 0 0 0 Z " fill="#F9CA23" transform="translate(65,144)"/>
<path d="M0 0 C1.134375 0.020625 2.26875 0.04125 3.4375 0.0625 C3.4375 3.3625 3.4375 6.6625 3.4375 10.0625 C0.4675 10.0625 -2.5025 10.0625 -5.5625 10.0625 C-4.57834158 0.08032178 -4.57834158 0.08032178 0 0 Z " fill="#F19F9F" transform="translate(129.5625,86.9375)"/>
<path d="M0 0 C0.8971875 1.175625 0.8971875 1.175625 1.8125 2.375 C3.91085249 5.14574323 3.91085249 5.14574323 7 7 C6.1028125 7.37125 6.1028125 7.37125 5.1875 7.75 C2.71352479 9.16370012 1.56629745 10.65055383 0 13 C-2.33333333 10.66666667 -4.66666667 8.33333333 -7 6 C-6.21625 5.7525 -5.4325 5.505 -4.625 5.25 C-1.67682892 3.84610901 -1.0975223 2.99324263 0 0 Z " fill="#F9CA23" transform="translate(220,190)"/>
<path d="M0 0 C0.226875 0.598125 0.45375 1.19625 0.6875 1.8125 C2.33811133 4.56351888 4.1972081 5.52484637 7 7 C4 9 4 9 2 9 C1.67 10.65 1.34 12.3 1 14 C0.236875 13.21625 -0.52625 12.4325 -1.3125 11.625 C-3.90891805 8.92742283 -3.90891805 8.92742283 -7 7 C-6.21625 6.5875 -5.4325 6.175 -4.625 5.75 C-1.94108344 3.9607223 -1.11901051 2.95011861 0 0 Z " fill="#F9CA23" transform="translate(56,84)"/>
<path d="M0 0 C0.226875 0.61875 0.45375 1.2375 0.6875 1.875 C2.37929835 4.61410209 3.99244161 5.05024472 7 6 C4 8 4 8 2 8 C1.34 9.32 0.68 10.64 0 12 C-0.433125 11.360625 -0.86625 10.72125 -1.3125 10.0625 C-2.91239177 7.73253997 -2.91239177 7.73253997 -6 7 C-6 6.34 -6 5.68 -6 5 C-5.38125 4.731875 -4.7625 4.46375 -4.125 4.1875 C-1.7004767 3.04443152 -1.7004767 3.04443152 0 0 Z " fill="#F9CA22" transform="translate(49,293)"/>
<path d="M0 0 C0.763125 0.78375 1.52625 1.5675 2.3125 2.375 C4.90891805 5.07257717 4.90891805 5.07257717 8 7 C6.8553125 7.6496875 6.8553125 7.6496875 5.6875 8.3125 C3.41906232 9.73686785 1.7800277 11.03260097 0 13 C-0.37125 12.1028125 -0.37125 12.1028125 -0.75 11.1875 C-2.16370012 8.71352479 -3.65055383 7.56629745 -6 6 C-5.195625 5.566875 -4.39125 5.13375 -3.5625 4.6875 C-0.72153646 3.19525998 -0.72153646 3.19525998 0 0 Z " fill="#F9CA23" transform="translate(185,24)"/>
<path d="M0 0 C1.4540625 0.0309375 1.4540625 0.0309375 2.9375 0.0625 C3.5625 2.9375 3.5625 2.9375 3.9375 6.0625 C1.9375 8.0625 1.9375 8.0625 -0.625 8.25 C-3.0625 8.0625 -3.0625 8.0625 -4.0625 7.0625 C-4.1875 4.0625 -4.1875 4.0625 -4.0625 1.0625 C-3.0625 0.0625 -3.0625 0.0625 0 0 Z " fill="#F8F8F8" transform="translate(35.0625,244.9375)"/>
<path d="M0 0 C2.97 0 5.94 0 9 0 C8.125 4.875 8.125 4.875 7 6 C4.5625 6.1875 4.5625 6.1875 2 6 C1.34 5.34 0.68 4.68 0 4 C0 2.68 0 1.36 0 0 Z " fill="#F4F4F4" transform="translate(168,247)"/>
<path d="M0 0 C0.66 0.33 1.32 0.66 2 1 C3.70363822 1.22622081 5.41328701 1.40888473 7.125 1.5625 C8.03507813 1.64628906 8.94515625 1.73007813 9.8828125 1.81640625 C10.58148438 1.87699219 11.28015625 1.93757813 12 2 C12 2.66 12 3.32 12 4 C6.555 5.485 6.555 5.485 1 7 C1 6.34 1 5.68 1 5 C0.34 5 -0.32 5 -1 5 C-0.67 3.35 -0.34 1.7 0 0 Z " fill="#FEA8A6" transform="translate(134,103)"/>
<path d="M0 0 C2.31 0 4.62 0 7 0 C6.67 1.65 6.34 3.3 6 5 C4.02 5.33 2.04 5.66 0 6 C0 4.02 0 2.04 0 0 Z " fill="#000000" transform="translate(119,87)"/>
<path d="M0 0 C2.64 0 5.28 0 8 0 C7.34 1.32 6.68 2.64 6 4 C3.36 4 0.72 4 -2 4 C-1.34 2.68 -0.68 1.36 0 0 Z " fill="#28283D" transform="translate(73,161)"/>
<path d="M0 0 C0.66 0.33 1.32 0.66 2 1 C1.67 1.5775 1.34 2.155 1 2.75 C-0.27075898 5.19883862 -0.27075898 5.19883862 0 9 C1.32 9.33 2.64 9.66 4 10 C4 10.66 4 11.32 4 12 C-0.75 11.25 -0.75 11.25 -3 9 C-3.56338028 3.70422535 -3.56338028 3.70422535 -1.5 1.125 C-1.005 0.75375 -0.51 0.3825 0 0 Z " fill="#DE9599" transform="translate(74,146)"/>
<path d="M0 0 C-0.33 1.65 -0.66 3.3 -1 5 C-2.65 5.33 -4.3 5.66 -6 6 C-6.66 5.01 -7.32 4.02 -8 3 C-3.375 0 -3.375 0 0 0 Z " fill="#F8C531" transform="translate(134,103)"/>
<path d="M0 0 C2 6.625 2 6.625 2 10 C0.125 9.4375 0.125 9.4375 -2 8 C-3.25 4.375 -3.25 4.375 -4 1 C-1 0 -1 0 0 0 Z " fill="#040201" transform="translate(123,97)"/>
<path d="M0 0 C0 1.32 0 2.64 0 4 C-2.64 4 -5.28 4 -8 4 C-8 3.01 -8 2.02 -8 1 C-5.10765685 0.17361624 -3.11257569 0 0 0 Z " fill="#FDB38E" transform="translate(191,159)"/>
<path d="M0 0 C-0.33 1.65 -0.66 3.3 -1 5 C-2.65 5.33 -4.3 5.66 -6 6 C-6 4.35 -6 2.7 -6 1 C-3 0 -3 0 0 0 Z " fill="#C84C0D" transform="translate(125,92)"/>
<path d="M0 0 C3.3 0 6.6 0 10 0 C9.67 0.99 9.34 1.98 9 3 C6.1875 3.1875 6.1875 3.1875 3 3 C2.01 2.01 1.02 1.02 0 0 Z " fill="#FEACA5" transform="translate(95,223)"/>
<path d="M0 0 C0.33 0.66 0.66 1.32 1 2 C1.99 2.33 2.98 2.66 4 3 C3.67 4.98 3.34 6.96 3 9 C1.68 9 0.36 9 -1 9 C-0.67 6.03 -0.34 3.06 0 0 Z " fill="#D3887C" transform="translate(125,88)"/>
<path d="M0 0 C2.97 0.495 2.97 0.495 6 1 C6 1.99 6 2.98 6 4 C4.02 4 2.04 4 0 4 C0 2.68 0 1.36 0 0 Z " fill="#FEC9AE" transform="translate(205,159)"/>
</svg>
